/* XPM */
static char *d4f7907750a64c56ed319054faab018enIj0D7xjjQjgdpBN[] = {
/* columns rows colors chars-per-pixel */
"32 32 14 1 ",
"  c None",
". c #0F1421",
"X c #1B1C28",
"o c gray21",
"O c #5B1835",
"+ c #443025",
"@ c #352866",
"# c #574C7F",
"$ c #B76D19",
"% c #823576",
"& c #0A871D",
"* c #EDB67B",
"= c #A0DB53",
"- c #8BC4D6",
/* pixels */
"           ########             ",
"           ########@            ",
"          @@@@@@@@@@            ",
"          @@@@@@@@@@            ",
"         @@@@@@@@@@@            ",
"         @@@@@@@@$**            ",
"        @@@@@@@@@---     ====   ",
"        @@@@@@@@@oo-     ====   ",
"        @@@@@@@@@---     &&&&   ",
"       $$%%%%%@@@..-     &&&&   ",
"       $%%%%%%%%@..-     &&&&   ",
"       @%OOOOO%%@...    *&&&&*  ",
"       @OOOOOOOO@..-    ******  ",
"       @OO****OO@@@@OO  $$$$$$  ",
"      @@@*$$$$*@$$@@OOOO$$$$$$  ",
"      @@@$....$@$$@@OOOOO....   ",
"      @@@@....@@@@$$$OOOO....   ",
"      @@@@..%%%@@@$==OOOO....   ",
"      @@@@.%%OOO@@$&&OOOO....   ",
"      @@@@%%O&&OO@$&&     ++    ",
"      @@@@%O&&&&O@$$$     ++    ",
"      @@@@%O=&&=OO@@      ++    ",
"      @@@@@OO==OO...      ++    ",
"      @@@@@@OOOO.....     ++    ",
"      @@@@@@@OO......     ++    ",
"      @@@@@@@@@.....      ++    ",
"      @@@@@@@@@@...@      ++    ",
"      @@@@X@@@X@@@@@      ++    ",
"      @@X@@@X@@@@X@       $$    ",
"       @X@@@@@@X@@@             ",
"       @ @ @@ @ @ @             ",
"         @ @@ @ @               "
};
