/* XPM */
static char *result[] = {
/* columns rows colors chars-per-pixel */
"32 32 45 1 ",
"  c #2A1E2A",
". c #2A1F2A",
"X c #2A1E2B",
"o c #2B1E2B",
"O c #2A1F2B",
"+ c #2B1F2B",
"@ c #3C3244",
"# c #3D3244",
"$ c #3C3344",
"% c #3C3245",
"& c #7B2B43",
"* c #7A2C42",
"= c #7B2C42",
"- c #7B2D42",
"; c #7A2C43",
": c #7B2C43",
"> c #7A2D43",
", c #7B2D43",
"< c #7B2C44",
"1 c #7B2D44",
"2 c #684E62",
"3 c #694E62",
"4 c #684F62",
"5 c #694F62",
"6 c #684E63",
"7 c #694E63",
"8 c #9E4236",
"9 c #9F4236",
"0 c #9E4336",
"q c #9F4336",
"w c #9E4237",
"e c #9F4237",
"r c #9E4337",
"t c #9F4337",
"y c #CE683A",
"u c #CF683A",
"i c #CE693A",
"p c #CE683B",
"a c #976B6C",
"s c #966C6C",
"d c #976C6C",
"f c #976D6C",
"g c #976C6D",
"h c #976D6D",
"j c None",
/* pixels */
"jjdddjjjjjjjjjjjjjjjjjjjjjjjjjjj",
"jd3qqt=:::::::::::::::::::qehjjj",
"jdq:::::::=:,::::::::::=;:::9djj",
"jsq:OOoOOOOOOOO+OOOXOO+OOOO:qjjj",
"jdq:O@O@O+@@@@O@@@@@X,::;:+:0jjj",
"j5;,OO@+O$O#@#OOOOOO+:qqqpO:tjjj",
"j3:,O%O@OO#@@@O::q:qX:qqqqO::jjj",
"j3::OO#OO@O@@@O-q=q:O:qqiqO::jjj",
"j3::O@O@OOOOOOX::q=rO:q0yqO;:jjj",
"j3::OX@.O,::::O,0:qqO,qqqqO<:jjj",
"j3::O@+@O,:,:qX=:qq0O:qytq.1:jjj",
"j5::OOOOX:::q:O:qqqt.:quqqO&qjjj",
"j2::X::=O:;9:q.::qy9O:qyqqO,qjjj",
"j3::O:::O:::qqO:q9yqO:qq0qO:qjjj",
"j3::O:;:O:=q:9O=:qt0O:qqqqO;qjjj",
"j3::O>:qO=::qqO=8qqqO:qqyq+:qjjj",
"jd::+::qO::q:qO::qqtO:qqy0O:qjjj",
"jd::O:,q.:::qqX;0qpqO:q0qq+::jjj",
"jd::O::qO:>q:qO,:qqq.;9y0q.::jjj",
"j3=,O=:qO:,;qqO-qt9q.:qpqqO=,jjj",
"j3q,O::0O,:q;9O::qqiO=qy0qO:,jjj",
"j3::O:,9O:::qqO:tqqy+:qqqqO:9jjj",
"j3::O*::O::q:qO::ty9O:qqyqO:qjjj",
"j3;,O:::O;::qtX:qqitX:qriqO,qjjj",
"j3t:O:::O=:q:qO::qi0.:qwyqO:qjjj",
"jdq:O=::O::::;O:::::O>:=:,O:qjjj",
"j3q:XXOOO.+O+O OOO+OOOOOOOO:qjjj",
"jdq::::::::::::::;:=;::::*::qjjj",
"jd3qq:q=q:,;;::q:q::q::q:00qjjjj",
"jjf334723733333333337333jjjjjjjj",
"jjjdgd63337jjjjjjajjjjjjjjjjjjjj",
"jjjjjjjjjjjjjjjjjjjjjjjjjjjjjjjj"
};
