/* XPM */
static char *result[] = {
/* columns rows colors chars-per-pixel */
"27 24 4 1 ",
"  c #2E242F",
". c #F9C22B",
"X c #FBFF86",
"o c None",
/* pixels */
"ooooooooooooooooooooooooooo",
"ooooooooooooooooooooooooooo",
"ooooooooooooooooooooooooooo",
"ooooooooooooooooooooooooooo",
"ooooooooooooooooooooooooooo",
"ooooooooooooooooooooooooooo",
"ooooooooooooooooooooooooooo",
"ooooooooooooooooooooooooooo",
"oooooooo    ooooooooooooooo",
"ooooooo XXXX oooooooooooooo",
"oooooo X....X         ooooo",
"oooooo X.  ..XXXXXXXXX oooo",
"oooooo X.  ........... oooo",
"oooooo X.....   . . .  oooo",
"oooooo  ....      . .  oooo",
"oooooo       ooo      ooooo",
"oooooooo    ooooooooooooooo",
"ooooooooooooooooooooooooooo",
"ooooooooooooooooooooooooooo",
"ooooooooooooooooooooooooooo",
"ooooooooooooooooooooooooooo",
"ooooooooooooooooooooooooooo",
"ooooooooooooooooooooooooooo",
"ooooooooooooooooooooooooooo"
};
