/* XPM */
static char *aa70476ade324951ed0ef37bcfde9d16gahaewlvUaSU3oDh[] = {
/* columns rows colors chars-per-pixel */
"32 32 12 1 ",
"  c None",
". c #0F1421",
"X c #1B1C28",
"o c #5B1835",
"O c #443025",
"+ c #352866",
"@ c #574C7F",
"# c #B76D19",
"$ c #823576",
"% c #0A871D",
"& c #EDB67B",
"* c #A0DB53",
/* pixels */
"                                ",
"          @@@@@@          ****  ",
"          @@@@@@          ****  ",
"         @@@@@@@@         %%%%  ",
"         @@@@@@@@        &%%%%& ",
"         +@@@@@@+        &%%%%& ",
"         +@@@@@@+        &%%%%& ",
"         ++++++++        &&&&&& ",
"      $$$++++++++$$$     ###### ",
"    &&$$$++++++++$$$&&   ###### ",
"    &&ooo++++++++ooo&&  oooo..  ",
"    ##ooo++++++++ooo## oooo**.  ",
"    ##ooo##++++##ooo##....o%%.  ",
"    ..ooo##++++##ooo......o%%.  ",
"   ....++++####++++.......o%%.  ",
"   ....++++####++++.......ooo   ",
"  .....++++++++++++.......oOO   ",
" $.....+++++++++@@+  ...   OO   ",
"*$.... +++++++++@@+        OO   ",
"%$$$$  +@@++@@++@@+        OO   ",
"%oooo  +@@++@@++@@+        OO   ",
"%oooo. +@@++@@++@@+        OO   ",
" oooo. +@@++@@++@@+        OO   ",
" ..... +@@++@@++@@+        ##   ",
" ....  +@@++@@+++++             ",
"       +++++@@+++++             ",
"       ++++++++X+++             ",
"       ++++X+++++X+             ",
"       +X++++++X+++             ",
"       +++X++X+X+X+             ",
"       + +X++++X+ +             ",
"         + + ++ +               "
};
