/* XPM */
static char *d6ae281686f3405aada6aa7325a45da61bpNUQmbFPTFPWpJ[] = {
/* columns rows colors chars-per-pixel */
"32 32 18 1 ",
"  c None",
". c #0F1907",
"X c #1F330F",
"o c #4C0C00",
"O c #661F0A",
"+ c #63661E",
"@ c #484C2D",
"# c #242542",
"$ c #195A7F",
"% c #544272",
"& c #C92C31",
"* c #8E6F09",
"= c #BC6C5A",
"- c #5992B2",
"; c #6BA3D3",
": c #E59A89",
"> c #B7D4E5",
", c #A2CEF2",
/* pixels */
"                      ,,,       ",
"                      ,,,,,     ",
"                    ,,,,,,,,    ",
"                    ,,,,,,,,,   ",
"                   ,,,,;,,,,,   ",
"                 * ,;,,;,,,,,,  ",
"               O *,,;,,;,,,,,,  ",
"          :::::OO*,,;,,;,,;,,,, ",
"         ::::::OO**;;,,;;,;,,,, ",
"        ========O**;;;,;;,;,;,,,",
"       >>=======OO**;;,;;,;,;,,,",
"       >>>>=====OO**;;;;;;;;;;,;",
"       &&>>>>====OO**;;;;;;;;;;;",
"    ---oo&>>>====OO**;;;  ;;;; ;",
"   $---&&>>>>==XXXOO***-  ; ;  ;",
"   $$$$>>>>====XXXXOOXX$  ; ;   ",
"   $$  ======XXX@@@XXXX$  ;     ",
"    $   =====XX%%@@@XXX$        ",
"         ==X%%%%%...XX-         ",
"        ----%%%##...XX$         ",
"       $----#####...XX$         ",
"       $$$$$#####...XX$         ",
"       $$$$$### +++XX-          ",
"       $$       ++XXX$          ",
"        $ XXXX  XXXXX$          ",
"            XXXXXXXX-           ",
"              XXXXXX$           ",
"                                ",
"                                ",
"                                ",
"                                ",
"                                "
};
