/* XPM */
static char *_1576e752acf489de8d0ec5319e710bar0Iu6XlTCZEF3Yqv[] = {
/* columns rows colors chars-per-pixel */
"32 32 18 1 ",
"  c None",
". c #0F1907",
"X c #1F330F",
"o c #4C0C00",
"O c #661F0A",
"+ c #63661E",
"@ c #484C2D",
"# c #242542",
"$ c #195A7F",
"% c #544272",
"& c #C92C31",
"* c #8E6F09",
"= c #BC6C5A",
"- c #5992B2",
"; c #6BA3D3",
": c #E59A89",
"> c #B7D4E5",
", c #A2CEF2",
/* pixels */
"       ,,,                      ",
"     ,,,,,                      ",
"    ,,,,,,,,                    ",
"   ,,,,,,,,,                    ",
"   ,,,,,;,,,,                   ",
"  ,,,,,,;,,;, *                 ",
"  ,,,,,,;,,;,,* O               ",
" ,,,,;,,;,,;,,*OO:::::          ",
" ,,,,;,;;,,;;**OO::::::         ",
",,,;,;,;;,;;;**O========        ",
",,,;,;,;;,;;**OO=======>>       ",
";,;;;;;;;;;;**OO=====>>>>       ",
";;;;;;;;;;;**OO====>>>>&&       ",
"; ;;;;  ;;;**OO====>>>&oo---    ",
";  ; ;  -***OOXXX==>>>>&&---$   ",
"   ; ;  $XXOOXXXX====>>>>$$$$   ",
"     ;  $XXXX@@@XXX======  $$   ",
"        $XXX@@@%%XX=====   $    ",
"         -XX...%%%%%X==         ",
"         $XX...##%%%----        ",
"         $XX...#####----$       ",
"         $XX...#####$$$$$       ",
"          -XX+++ ###$$$$$       ",
"          $XXX++       $$       ",
"          $XXXXX  XXXX $        ",
"           -XXXXXXXX            ",
"           $XXXXXX              ",
"                                ",
"                                ",
"                                ",
"                                ",
"                                "
};
