/* XPM */
static char *dfe1bb343e494c10ee3ede6574aace23IMOmwUmWCdAsZZ84[] = {
/* columns rows colors chars-per-pixel */
"32 32 18 1 ",
"  c None",
". c #0F1907",
"X c #1F330F",
"o c #4C0C00",
"O c #661F0A",
"+ c #63661E",
"@ c #484C2D",
"# c #242542",
"$ c #195A7F",
"% c #544272",
"& c #C92C31",
"* c #8E6F09",
"= c #BC6C5A",
"- c #5992B2",
"; c #6BA3D3",
": c #E59A89",
"> c #B7D4E5",
", c #A2CEF2",
/* pixels */
"     ,,,                ,,,     ",
"   ,,,,,                ,,,,    ",
"  ,,,,,,,              ,,,,,,,  ",
"  ,,,,;,,              ,,;,,,,  ",
" ,,,,,;,,,            ,,,;,,,,, ",
" ,;,,;;,;,*          *,;,;;,,;, ",
" ,;;,;;;;,* O      O *,;;;;,;;, ",
" ;;;;;;;;**OOO::::OOO**;;;;;;;; ",
" ;;;;;;***OO=::::::=OO***;;;;;; ",
" ; ;;; ;;OO==========OO;; ;;; ; ",
" ;  ;  ;OO====>>>>====OO;  ;  ; ",
" ;     ; O==>>>>>>>>==O ;     ; ",
"       ;  =>>>&&&&>>>=  ;       ",
"          =>>&oooo&>>=          ",
"        XXX>>>&&&&>>>XXX        ",
"  %%%%%@@@XX>>>>>>>>XX@@@%%%%%  ",
"  %%%%%#...XXX>>>>XXX...#%%%%%  ",
"-----$##....--XXXX--....##$-----",
"-$-$-$##... $$-++-$$ ...##$-$-$-",
"$$$$$$##    $$$++$$$    ##$$$$$$",
"$ $ $        $$++$$        $ $ $",
"$ $ $        X++++X        $ $ $",
"             XX++XX             ",
"      XX    XXXXXXX             ",
"      XXXXXXXXXXXX              ",
"        XXXXXXXX                ",
"          XXXX                  ",
"                                ",
"                                ",
"                                ",
"                                ",
"                                "
};
