/* XPM */
static char *_de35872f93642dc9c79caf3d03cd979sVZuttlqg7heWNYr[] = {
/* columns rows colors chars-per-pixel */
"32 32 4 1 ",
"  c #0E0421",
". c #0C0B42",
"X c #032769",
"o c #144491",
/* pixels */
"XXXXXXXXXXX XXXXXXXX XXXXXXXXXX ",
"XXXXXXXXXXX XXXXXXXX XXXXXXXXXX ",
"XXXXXXXXXXX XXXXXXXX XXXXXXXXXX ",
"                                ",
"oooo. .oooooo. .oooooooo. .ooooo",
"XXXXo oXXXXXXo oXXXXXXXXo oXXXXX",
"XXXXX XXXXXXXX XXXXXXXXXX XXXXXX",
"XXXXX XXXXXXXX XXXXXXXXXX XXXXXX",
"XXXXX XXXXXXXX XXXXXXXXXX XXXXXX",
"                                ",
"oooooooo. .oooooo. .oooooooo. .o",
"XXXXXXXXo oXXXXXXo oXXXXXXXXo oX",
"XXXXXXXXX XXXXXXXX XXXXXXXXXX XX",
"XXXXXXXXX XXXXXXXX XXXXXXXXXX XX",
"XXXXXXXXX XXXXXXXX XXXXXXXXXX XX",
"                                ",
"oooo. .oooooo. .oooooooo. .ooooo",
"XXXXo oXXXXXXo oXXXXXXXXo oXXXXX",
"XXXXX XXXXXXXX XXXXXXXXXX XXXXXX",
"XXXXX XXXXXXXX XXXXXXXXXX XXXXXX",
"XXXXX XXXXXXXX XXXXXXXXXX XXXXXX",
"                                ",
".oooooo. .oooooooo. .ooooooooo. ",
"oXXXXXXo oXXXXXXXXo oXXXXXXXXXo ",
"XXXXXXXX XXXXXXXXXX XXXXXXXXXXX ",
"XXXXXXXX XXXXXXXXXX XXXXXXXXXXX ",
"XXXXXXXX XXXXXXXXXX XXXXXXXXXXX ",
"                                ",
"oo. .oooooo. .oooooooo. .ooooooo",
"XXo oXXXXXXo oXXXXXXXXo oXXXXXXX",
"XXX XXXXXXXX XXXXXXXXXX XXXXXXXX",
"XXX XXXXXXXX XXXXXXXXXX XXXXXXXX"
};
