/* XPM */
static char *result[] = {
/* columns rows colors chars-per-pixel */
"32 32 5 1 ",
"  c #0C0A09",
". c #100D0C",
"X c #1E1815",
"o c #251F1B",
"O c #2E2621",
/* pixels */
"XXXooooooooooooOOOOooooo.ooooooO",
"oooooooooooooOOOOooooooo.ooooooo",
"oooooooooooooooooooooooo.ooooooo",
"oooooooXXooooooooooooXXX.XXooooo",
"XooooooXXooXXXoooooXXXXX.XXooooo",
"XXXXXXXXXXXXXXXXXXXXXXXX.XXXXXXX",
"XXXXXXXXXXXXXXXXXXXXXXXX.XXXXXXX",
"    ............................",
"X OOoooooooooOOO.ooOOOOOooooooOO",
"X Oooooooooooooo.ooOOooooooooooO",
"X oooooooooooooo.ooooooooooooooo",
"X.oooooooooooooo.Xoooooooooooooo",
"X.XooooooooooXXX.XXooooooooooooX",
"X.XXXXXXooooXXXX.XXoooooooXXXXXX",
"X.XXXXooooooXXXX.XXoooooooooXXXX",
"   ..........            .......",
"XXXooooooooooooOOOOooooo.ooooooO",
"oooooooooooooOOOOooooooo.ooooooo",
"oooooooooooooooooooooooo.ooooooo",
"oooooooXXooooooooooooXXX.XXooooo",
"XooooooXXooXXXoooooXXXXX.XXooooo",
"XXXXXXXXXXXXXXXXXXXXXXXX.XXXXXXX",
"XXXXXXXXXXXXXXXXXXXXXXXX.XXXXXXX",
"    ............................",
"X OOoooooooooOOO.ooOOOOOooooooOO",
"X Oooooooooooooo.ooOOooooooooooO",
"X oooooooooooooo.ooooooooooooooo",
"X.oooooooooooooo.Xoooooooooooooo",
"X.XooooooooooXXX.XXooooooooooooX",
"X.XXXXXXooooXXXX.XXoooooooXXXXXX",
"X.XXXXooooooXXXX.XXoooooooooXXXX",
"                         ......."
};
