/* XPM */
static char *_6ab510afcbd4a9cc00dc22bfe3d461eMDZY60FV5WiCBl51[] = {
/* columns rows colors chars-per-pixel */
"32 32 9 1 ",
"  c #141412",
". c #281818",
"X c #332520",
"o c #242A36",
"O c #523D2A",
"+ c #6E4B2C",
"@ c #3B535E",
"# c #5C8EA5",
"$ c #8AC6E0",
/* pixels */
"++X++++++++++++++++++++++++++X++",
"++X++++++++++++++++++++++++++X++",
"XXX                          XXX",
"++                            OO",
"++ ..                         OO",
"OO ..                         OO",
"++ ..                         OO",
"OO ..                         OO",
"##@$.                         OO",
"##@$.                         OO",
"##@$.                         ##",
"XX ..                         ##",
"OO ..                         $$",
"OO ..o                        $$",
"OO ..o                       #$$",
"OO ..                        $$$",
"OO ..                        $$$",
"OO ..o                       #$$",
"OO ..o                        $$",
"OO ..                         $$",
"OO ..                         ##",
"##@$.                         ##",
"##@$.                         XX",
"##@$.                         OO",
"XX ..                         OO",
"OO ..                         OO",
"OO ..                         OO",
"OO ..                         OO",
"XXX                          XXX",
"++X+++++++++O+O+OOOOOOOOOOOOOXOO",
"++X+++++++++O+O+OOOOOOOOOOOOOXOO",
"XXXXXXXXXXXXXXXXXXXXXXXXXXXXXXXX"
};
