/* XPM */
static char *_3b958e676be49d0bbb4eeffeb86a15aySNmIKPLsC2umzNH[] = {
/* columns rows colors chars-per-pixel */
"33 41 14 1 ",
"  c None",
". c #0F1421",
"X c #1B1C28",
"o c gray21",
"O c #5B1835",
"+ c #443025",
"@ c #352866",
"# c #574C7F",
"$ c #B76D19",
"% c #823576",
"& c #0A871D",
"* c #EDB67B",
"= c #A0DB53",
"- c #8BC4D6",
/* pixels */
"                                 ",
"              ######             ",
"              ######             ",
"             ########            ",
"             ##@@@@##            ",
"             @@@@@@@@            ",
"             @$****$@            ",
"             @------@            ",
"          %%%@oo--oo@%%%         ",
"   ==== **%%%@------@%%%**       ",
"   ==== **OOO@..--..@OOO**       ",
"   &&&& $$OOO@..--..@OOO$$       ",
"  *&&&&*$$OOO@......@OOO$$       ",
"  *&&&&* .OOO@..--..@OOO..       ",
"  *&&&&*..OOO@@@@@@@@OOO...      ",
"  ******...@@$$@@@@$$@@....%     ",
"  $$$$$$OO.@@$$@@@@$$@@....%=    ",
"  $$$$$$OO.@@@@$$$$@@@@ %%%%&    ",
"   .....OO.@@@@$==$@@@@ OOOO&    ",
"   .....OO @@@@$&&$@@@@ OOOO&    ",
"   ....OO  @@@@$&&$@@@@..OOO     ",
"   ....    @@@@$$$$@@@@....      ",
"    ++     @@@@@XX@@@@@....      ",
"    ++     @@@@@XX@@@@@ ...      ",
"    ++     @@@@@XX@@@@@          ",
"    ++     @@@X@XX@@@@@          ",
"    ++     @@@@@XX@X@@@          ",
"    ++     @X@@@XX@@@@@          ",
"    ++     @@@X@XX@@@X@          ",
"    ++     @X@@@XX@X@@@          ",
"    ++     @ @ @  @ @ @          ",
"    $$       @ @  @ @            ",
"             @      @            ",
"                                 ",
"                                 ",
"                                 ",
"                                 ",
"                                 ",
"                                 ",
"                                 ",
"                                 "
};
