/* XPM */
static char *result[] = {
/* columns rows colors chars-per-pixel */
"32 32 5 1 ",
"  c #0E0421",
". c #0C0B42",
"X c #032769",
"o c #144491",
"O c #10908E",
/* pixels */
" ...............................",
" Xooooooooooooooo.Xooooooooooooo",
" oooooooooooooooo.oooooooooooooo",
" oooooooooooooooo.oooooooooooooo",
" oooooooooooooooo.oooooooooooooo",
" oooooooooooooooo.oooooooooooooo",
" oooooooooooooooo.oooooooooooooo",
" oooooooooooooooo.oooooooooooooo",
" oooooooooooooooo.oooooooooooooo",
" OooooooooooooooO.Oooooooooooooo",
" XOOOOOOOOOOOOOOX.XOOOOOOOOOOOOO",
" ...............................",
" XooooooX.XooooooooooX.Xoooooooo",
" oooooooo.oooooooooooo.ooooooooo",
" oooooooo.oooooooooooo.ooooooooo",
" oooooooo.oooooooooooo.ooooooooo",
" oooooooo.oooooooooooo.ooooooooo",
" oooooooo.oooooooooooo.ooooooooo",
" oooooooo.oooooooooooo.ooooooooo",
" OooooooO.OooooooooooO.Ooooooooo",
" XOOOOOOX.XOOOOOOOOOOX.XOOOOOOOO",
" ...............................",
" XooooooooooX.XooooooooooooooX.X",
" oooooooooooo.oooooooooooooooo.o",
" oooooooooooo.oooooooooooooooo.o",
" oooooooooooo.oooooooooooooooo.o",
" oooooooooooo.oooooooooooooooo.o",
" oooooooooooo.oooooooooooooooo.o",
" oooooooooooo.oooooooooooooooo.o",
" oooooooooooo.oooooooooooooooo.o",
" OooooooooooO.OooooooooooooooO.O",
" XOOOOOOOOOOX.XOOOOOOOOOOOOOOX.X"
};
