/* XPM */
static char *result[] = {
/* columns rows colors chars-per-pixel */
"32 32 5 1 ",
"  c #1B1514",
". c #261F19",
"X c #44332B",
"o c #553E36",
"O c #6B5644",
/* pixels */
"XooooooooooooOOOOooooo.ooooooOOO",
"oooooooooooOOOOooooooo.ooooooooo",
"oooooooooooooooooooooo.ooooooooo",
"oooooXXooooooooooooXXX.XXooooooo",
"oooooXXooXXXoooooXXXXX.XXooooooo",
"XXXXXXXXXXXXXXXXXXXXXX.XXXXXXXXX",
"XXXXXXXXXXXXXXXXXXXXXX.XXXXXXXXX",
"  ..............................",
"OOoooooooooOOO.ooOOOOOooooooOO.O",
"Oooooooooooooo.ooOOooooooooooO.o",
"oooooooooooooo.ooooooooooooooo.X",
"oooooooooooooo.Xoooooooooooooo.X",
"XooooooooooXXX.XXooooooooooooX.X",
"XXXXXXooooXXXX.XXoooooooXXXXXX.X",
"XXXXooooooXXXX.XXoooooooooXXXX.X",
" ..........            .........",
"XooooooooooooOOOOooooo.ooooooOOO",
"oooooooooooOOOOooooooo.ooooooooo",
"oooooooooooooooooooooo.ooooooooo",
"oooooXXooooooooooooXXX.XXooooooo",
"oooooXXooXXXoooooXXXXX.XXooooooo",
"XXXXXXXXXXXXXXXXXXXXXX.XXXXXXXXX",
"XXXXXXXXXXXXXXXXXXXXXX.XXXXXXXXX",
"  ..............................",
"OOoooooooooOOO.ooOOOOOooooooOO.O",
"Oooooooooooooo.ooOOooooooooooO.o",
"oooooooooooooo.ooooooooooooooo.X",
"oooooooooooooo.Xoooooooooooooo.X",
"XooooooooooXXX.XXooooooooooooX.X",
"XXXXXXooooXXXX.XXoooooooXXXXXX.X",
"XXXXooooooXXXX.XXoooooooooXXXX.X",
"                       ........."
};
